<?xml version="1.0" encoding="utf-8"?>
<!-- Generator: Adobe Illustrator 23.0.2, SVG Export Plug-In . SVG Version: 6.00 Build 0)  -->
<svg version="1.1" id="Capa_1" xmlns="http://www.w3.org/2000/svg" xmlns:xlink="http://www.w3.org/1999/xlink" x="0px" y="0px"
	 viewBox="0 0 1280 1214" style="enable-background:new 0 0 1280 1214;" xml:space="preserve">
<style type="text/css">
	.st0{fill:#FFFFFF;}
	.st1{fill:url(#SVGID_1_);}
	.st2{fill:url(#SVGID_2_);}
	.st3{fill:url(#SVGID_3_);}
	.st4{fill:url(#SVGID_4_);}
	.st5{fill:url(#SVGID_5_);}
	.st6{opacity:0.84;fill:url(#SVGID_6_);}
	.st7{fill:url(#SVGID_7_);}
	.st8{fill:url(#SVGID_8_);}
	.st9{fill:url(#SVGID_9_);}
	.st10{fill:url(#SVGID_10_);}
	.st11{fill:url(#SVGID_11_);}
	.st12{fill:url(#SVGID_12_);}
	.st13{fill:url(#SVGID_13_);}
	.st14{fill:url(#SVGID_14_);}
	.st15{fill:url(#SVGID_15_);}
	.st16{fill:url(#SVGID_16_);}
	.st17{fill:url(#SVGID_17_);}
	.st18{fill:url(#SVGID_18_);}
	.st19{opacity:0.5;fill:url(#SVGID_19_);}
	.st20{fill:url(#SVGID_20_);}
	.st21{fill:url(#SVGID_21_);}
	.st22{fill:url(#SVGID_22_);}
	.st23{fill:url(#SVGID_23_);}
	.st24{fill:url(#SVGID_24_);}
	.st25{fill:url(#SVGID_25_);}
	.st26{fill:url(#SVGID_26_);}
	.st27{fill:url(#SVGID_27_);}
	.st28{fill:url(#SVGID_28_);}
	.st29{fill:url(#SVGID_29_);}
	.st30{fill:url(#SVGID_30_);}
	.st31{opacity:0.31;fill:url(#SVGID_31_);}
	.st32{opacity:0.49;fill:url(#SVGID_32_);}
	.st33{fill:url(#SVGID_33_);}
	.st34{fill:url(#SVGID_34_);}
	.st35{opacity:0.49;fill:url(#SVGID_35_);}
	.st36{fill:url(#SVGID_36_);}
	.st37{opacity:0.49;fill:url(#SVGID_37_);}
	.st38{opacity:0.19;fill:url(#SVGID_38_);}
	.st39{fill:url(#SVGID_39_);}
	.st40{fill:url(#SVGID_40_);}
	.st41{opacity:0.42;fill:url(#SVGID_41_);}
	.st42{fill:url(#SVGID_42_);}
	.st43{fill:url(#SVGID_43_);}
	.st44{fill:url(#SVGID_44_);}
	.st45{fill:url(#SVGID_45_);}
	.st46{fill:url(#SVGID_46_);}
	.st47{fill:url(#SVGID_47_);}
	.st48{fill:url(#SVGID_48_);}
	.st49{fill:url(#SVGID_49_);}
	.st50{fill:url(#SVGID_50_);}
	.st51{fill:url(#SVGID_51_);}
	.st52{fill:url(#SVGID_52_);}
	.st53{fill:url(#SVGID_53_);}
</style>
<rect x="56.8" y="23.8" transform="matrix(-1.836970e-16 1 -1 -1.836970e-16 1247 -33)" class="st0" width="1166.4" height="1166.4"/>
<radialGradient id="SVGID_1_" cx="640" cy="4712.5923" r="306.0282" gradientTransform="matrix(1 0 0 0.1282 0 2.8457)" gradientUnits="userSpaceOnUse">
	<stop  offset="0" style="stop-color:#A6A6A6"/>
	<stop  offset="9.113836e-02" style="stop-color:#B4B4B4"/>
	<stop  offset="0.3422" style="stop-color:#D4D4D4"/>
	<stop  offset="0.5833" style="stop-color:#ECECEC"/>
	<stop  offset="0.808" style="stop-color:#FAFAFA"/>
	<stop  offset="1" style="stop-color:#FFFFFF"/>
</radialGradient>
<ellipse class="st1" cx="640" cy="607" rx="306" ry="39.2"/>
<g>
	<g>
		<g>
			<g>
				
					<radialGradient id="SVGID_2_" cx="645.4383" cy="1047.6687" r="493.4979" gradientTransform="matrix(0.9642 -0.265 0.265 0.9642 -257.0353 41.6366)" gradientUnits="userSpaceOnUse">
					<stop  offset="0" style="stop-color:#FFA900"/>
					<stop  offset="1" style="stop-color:#FFED57"/>
				</radialGradient>
				<circle class="st2" cx="664.7" cy="744.2" r="346.6"/>
				
					<radialGradient id="SVGID_3_" cx="581.5393" cy="1117.1293" r="570.0355" gradientTransform="matrix(0.9642 -0.265 0.265 0.9642 -257.0353 41.6366)" gradientUnits="userSpaceOnUse">
					<stop  offset="0" style="stop-color:#FFDE00"/>
					<stop  offset="0.1489" style="stop-color:#FFDE03"/>
					<stop  offset="0.2776" style="stop-color:#FFE00E"/>
					<stop  offset="0.3988" style="stop-color:#FFE220"/>
					<stop  offset="0.5156" style="stop-color:#FFE539"/>
					<stop  offset="0.6291" style="stop-color:#FFEA59"/>
					<stop  offset="0.7402" style="stop-color:#FFEF81"/>
					<stop  offset="0.8493" style="stop-color:#FFF5B0"/>
					<stop  offset="0.9542" style="stop-color:#FFFCE5"/>
					<stop  offset="1" style="stop-color:#FFFFFF"/>
				</radialGradient>
				<circle class="st3" cx="664.7" cy="744.2" r="346.6"/>
				
					<radialGradient id="SVGID_4_" cx="590.2936" cy="913.2822" r="345.7838" gradientTransform="matrix(0.9973 7.297570e-02 -5.564675e-02 0.7605 52.3951 175.6496)" gradientUnits="userSpaceOnUse">
					<stop  offset="0" style="stop-color:#FFB800"/>
					<stop  offset="7.887840e-03" style="stop-color:#FFB903"/>
					<stop  offset="0.1733" style="stop-color:#FFCB45"/>
					<stop  offset="0.3361" style="stop-color:#FFDB7E"/>
					<stop  offset="0.4921" style="stop-color:#FFE8AC"/>
					<stop  offset="0.64" style="stop-color:#FFF2D0"/>
					<stop  offset="0.7779" style="stop-color:#FFF9EA"/>
					<stop  offset="0.9018" style="stop-color:#FFFDFA"/>
					<stop  offset="1" style="stop-color:#FFFFFF"/>
				</radialGradient>
				<path class="st4" d="M720.6,657.3C621.4,634.7,429,637.4,319,718.3c-2.9,38.6,0.7,78.2,11.5,117.7
					c50.7,184.6,241.5,293.1,426,242.3c163.1-44.8,266.8-199,253.7-361.7C998.8,720.8,878.9,693.3,720.6,657.3z"/>
				
					<radialGradient id="SVGID_5_" cx="571.3306" cy="1004.7878" r="589.408" gradientTransform="matrix(0.9642 -0.265 0.2184 0.7947 -210.238 211.908)" gradientUnits="userSpaceOnUse">
					<stop  offset="0.8175" style="stop-color:#000000"/>
					<stop  offset="1" style="stop-color:#FFFFFF"/>
				</radialGradient>
				<path class="st5" d="M650.5,704.2c166.3,43.9,347.9-30.4,346.1-59.7C942.7,464.7,754.8,360,572.8,410
					c-69.2,19-127.7,57.8-171.1,108.4C380.8,553.7,451.8,651.8,650.5,704.2z"/>
				
					<radialGradient id="SVGID_6_" cx="1218.4624" cy="153.7299" r="159.1941" gradientTransform="matrix(1.0517 0.6146 -0.2074 0.6673 -432.8659 -288.6182)" gradientUnits="userSpaceOnUse">
					<stop  offset="0" style="stop-color:#FFFFB1"/>
					<stop  offset="0.1804" style="stop-color:#FFFFC5;stop-opacity:0.8196"/>
					<stop  offset="0.5188" style="stop-color:#FFFFE5;stop-opacity:0.4812"/>
					<stop  offset="0.8041" style="stop-color:#FFFFF8;stop-opacity:0.1959"/>
					<stop  offset="1" style="stop-color:#FFFFFF;stop-opacity:0"/>
				</radialGradient>
				<path class="st6" d="M991.8,669.7c-19.5,62.7-115.4,66.7-214.2,9S614.4,523.3,633.9,460.6c19.5-62.7,115.4-66.7,214.2-9
					S1011.2,607,991.8,669.7z"/>
			</g>
			<g>
				<g>
					<linearGradient id="SVGID_7_" gradientUnits="userSpaceOnUse" x1="434.8214" y1="708.3968" x2="609.4919" y2="708.3968">
						<stop  offset="0" style="stop-color:#FFB53E"/>
						<stop  offset="0.1677" style="stop-color:#FFB03D"/>
						<stop  offset="0.3725" style="stop-color:#FFA13B"/>
						<stop  offset="0.5966" style="stop-color:#FF8837"/>
						<stop  offset="0.8328" style="stop-color:#FF6631"/>
						<stop  offset="1" style="stop-color:#FF492C"/>
					</linearGradient>
					<path class="st7" d="M455.3,756.5c-6.3,0-12.4-3.1-16.2-8.3c-4.5-6.1-5.5-14.2-2.8-22.7c11.6-36.5,44.2-58.2,71.4-63.5
						c6.1-1.2,12.2-1.8,18.2-1.8c28.3,0,54.9,13.3,76.8,38.3c6.6,7.5,8.5,16.4,5.1,23.7c-2.9,6.4-9.3,10.4-16.5,10.4c0,0,0,0,0,0
						c-4.1,0-10.4-1.3-17-7.5c-11.6-11.1-25.8-16.9-40.9-16.9c-22.8,0-44.1,13.1-58.3,36C470.3,752.1,463.1,756.5,455.3,756.5z"/>
					
						<radialGradient id="SVGID_8_" cx="524.4929" cy="741.1671" r="114.0654" gradientTransform="matrix(0.976 -0.2179 0.1817 0.8136 -122.0567 252.4431)" gradientUnits="userSpaceOnUse">
						<stop  offset="0.3356" style="stop-color:#000000"/>
						<stop  offset="0.4298" style="stop-color:#0F0B08"/>
						<stop  offset="0.6112" style="stop-color:#37291C"/>
						<stop  offset="0.6871" style="stop-color:#4A3725"/>
						<stop  offset="0.7771" style="stop-color:#473524"/>
						<stop  offset="0.8439" style="stop-color:#3E2E1F"/>
						<stop  offset="0.9033" style="stop-color:#2D2217"/>
						<stop  offset="0.958" style="stop-color:#17110B"/>
						<stop  offset="1" style="stop-color:#000000"/>
					</radialGradient>
					<path class="st8" d="M599.6,701.3c-27.7-31.6-60.1-41.2-91.1-35.2c-28.4,5.5-57.8,28-68.2,60.6c-7.3,23,18.5,35.8,31.3,15.2
						c26.2-42.2,74.2-49.8,105.6-19.8C594.8,738.9,615.6,719.6,599.6,701.3z"/>
				</g>
				<g>
					
						<linearGradient id="SVGID_9_" gradientUnits="userSpaceOnUse" x1="-267.506" y1="708.3968" x2="-92.8356" y2="708.3968" gradientTransform="matrix(-1 0 0 1 627.0291 0)">
						<stop  offset="0" style="stop-color:#FFB53E"/>
						<stop  offset="0.1677" style="stop-color:#FFB03D"/>
						<stop  offset="0.3725" style="stop-color:#FFA13B"/>
						<stop  offset="0.5966" style="stop-color:#FF8837"/>
						<stop  offset="0.8328" style="stop-color:#FF6631"/>
						<stop  offset="1" style="stop-color:#FF492C"/>
					</linearGradient>
					<path class="st9" d="M874,756.5c-7.8,0-15-4.5-19.9-12.3c-14.2-22.9-35.5-36-58.3-36c-15.1,0-29.3,5.9-40.9,16.9
						c-6.5,6.2-12.8,7.5-17,7.5c-7.3,0-13.6-4-16.5-10.4c-3.3-7.4-1.4-16.2,5.1-23.7c21.9-25.1,48.5-38.3,76.8-38.3
						c6,0,12.1,0.6,18.2,1.8c27.1,5.3,59.7,27,71.4,63.5c2.7,8.5,1.7,16.6-2.8,22.7C886.5,753.4,880.4,756.5,874,756.5
						C874,756.5,874,756.5,874,756.5z"/>
					
						<radialGradient id="SVGID_10_" cx="-177.8345" cy="741.1671" r="114.0654" gradientTransform="matrix(-0.976 -0.2179 -0.1817 0.8136 765.9688 99.3751)" gradientUnits="userSpaceOnUse">
						<stop  offset="0.3356" style="stop-color:#000000"/>
						<stop  offset="0.4298" style="stop-color:#0F0B08"/>
						<stop  offset="0.6112" style="stop-color:#37291C"/>
						<stop  offset="0.6871" style="stop-color:#4A3725"/>
						<stop  offset="0.7771" style="stop-color:#473524"/>
						<stop  offset="0.8439" style="stop-color:#3E2E1F"/>
						<stop  offset="0.9033" style="stop-color:#2D2217"/>
						<stop  offset="0.958" style="stop-color:#17110B"/>
						<stop  offset="1" style="stop-color:#000000"/>
					</radialGradient>
					<path class="st10" d="M729.8,701.3c27.7-31.6,60.1-41.2,91.1-35.2c28.4,5.5,57.8,28,68.2,60.6c7.3,23-18.5,35.8-31.3,15.2
						c-26.2-42.2-74.2-49.8-105.6-19.8C734.6,738.9,713.8,719.6,729.8,701.3z"/>
				</g>
			</g>
			<g>
				<linearGradient id="SVGID_11_" gradientUnits="userSpaceOnUse" x1="690.4016" y1="787.7764" x2="626.3009" y2="998.9314">
					<stop  offset="0" style="stop-color:#FFB53E"/>
					<stop  offset="0.1677" style="stop-color:#FFB03D"/>
					<stop  offset="0.3725" style="stop-color:#FFA13B"/>
					<stop  offset="0.5966" style="stop-color:#FF8837"/>
					<stop  offset="0.8328" style="stop-color:#FF6631"/>
					<stop  offset="1" style="stop-color:#FF492C"/>
				</linearGradient>
				<path class="st11" d="M664.9,964.8c-11.7,0-24.4-2.7-36.5-7.7c-9.3-3.8-11.5-10.7-10.5-15.9c1.2-6,6.5-10.5,12.3-10.5
					c0.9,0,1.7,0.1,2.6,0.3c4.9,1.2,10,1.8,14.6,1.8c8,0,19.1-1.9,26.1-10.9c2.6-3.4,3.4-6.4,2.3-9.2c-2.5-6.6-14.7-12.5-25-14.4
					c-7.5-1.4-12.8-7.7-13.3-15.8c-0.5-8.4,4.3-15.7,12.1-18.2c11.6-3.7,18.8-8.2,21.3-13.4c1.3-2.6,1.3-5.5,0.1-8.7
					c-2.5-6.8-9-10.2-19.1-10.2c-8.4,0-16.7,2.4-19.8,3.4c-3.1,1-6.1,1.6-8.9,1.6c-7.3,0-12.8-3.8-13.9-9.6c-1-5.4,2-13.4,13.9-18.2
					c18.3-7.3,31.5-10.6,43-10.6c15.8,0,28.2,6.6,38.2,20.3c10.2,14,12.2,42-5.2,59.9c8.4,4.8,14.8,12.4,18.2,22.1
					c4.4,12.5,3.2,26.5-3.3,37.7C703.9,955.7,686.9,964.8,664.9,964.8C664.9,964.8,664.9,964.8,664.9,964.8z"/>
				
					<radialGradient id="SVGID_12_" cx="644.9026" cy="888.5767" r="95.9439" gradientTransform="matrix(1 0 0 1.295 0 -262.0857)" gradientUnits="userSpaceOnUse">
					<stop  offset="0.3179" style="stop-color:#000000"/>
					<stop  offset="0.4065" style="stop-color:#0F0B08"/>
					<stop  offset="0.5772" style="stop-color:#37291C"/>
					<stop  offset="0.6486" style="stop-color:#4A3725"/>
					<stop  offset="0.7496" style="stop-color:#473524"/>
					<stop  offset="0.8247" style="stop-color:#3E2E1F"/>
					<stop  offset="0.8914" style="stop-color:#2D2217"/>
					<stop  offset="0.9528" style="stop-color:#17110B"/>
					<stop  offset="1" style="stop-color:#000000"/>
				</radialGradient>
				<path class="st12" d="M691.5,879.8c21.9-16.7,18.4-46.2,9.4-58.5c-17.6-24.2-41.3-22.3-76.2-8.2c-18.7,7.5-13,24.7,6,18.4
					c12.3-4,37.5-8.5,44.2,9.3c6.2,16.6-14.3,24.4-24,27.6c-13.1,4.2-11.8,23.6,0.7,25.9c14.3,2.7,38,13.9,25.2,30.3
					c-10.9,14-30.4,14.1-45,10.6c-8.3-2-16.7,12-1.8,18.2c27.1,11.2,63.1,12.6,80.4-17C721.8,916.7,714.6,888.4,691.5,879.8z"/>
			</g>
			<g>
				<radialGradient id="SVGID_13_" cx="460.133" cy="845.2" r="87.8019" gradientUnits="userSpaceOnUse">
					<stop  offset="0" style="stop-color:#FFA1C2"/>
					<stop  offset="1" style="stop-color:#FFFFFF"/>
				</radialGradient>
				<circle class="st13" cx="460.1" cy="845.2" r="87.8"/>
				<radialGradient id="SVGID_14_" cx="869.2236" cy="845.2" r="87.802" gradientUnits="userSpaceOnUse">
					<stop  offset="0" style="stop-color:#FFA1C2"/>
					<stop  offset="1" style="stop-color:#FFFFFF"/>
				</radialGradient>
				<circle class="st14" cx="869.2" cy="845.2" r="87.8"/>
			</g>
		</g>
		<g>
			
				<radialGradient id="SVGID_15_" cx="433.9126" cy="525.5336" r="253.606" gradientTransform="matrix(0.9245 -0.3811 0.2238 0.543 -84.8699 405.5351)" gradientUnits="userSpaceOnUse">
				<stop  offset="0" style="stop-color:#FFDE00"/>
				<stop  offset="0.1489" style="stop-color:#FFDE03"/>
				<stop  offset="0.2776" style="stop-color:#FFE00E"/>
				<stop  offset="0.3988" style="stop-color:#FFE220"/>
				<stop  offset="0.5156" style="stop-color:#FFE539"/>
				<stop  offset="0.6291" style="stop-color:#FFEA59"/>
				<stop  offset="0.7402" style="stop-color:#FFEF81"/>
				<stop  offset="0.8493" style="stop-color:#FFF5B0"/>
				<stop  offset="0.9542" style="stop-color:#FFFCE5"/>
				<stop  offset="1" style="stop-color:#FFFFFF"/>
			</radialGradient>
			<path class="st15" d="M572.8,410C441,446.2,348,553.9,324.1,679.7c45.4,5,129.7-27.5,214.2-86.2
				c102-70.8,168.2-154.6,156.1-194.8C654.6,395.3,613.6,398.8,572.8,410z"/>
			<g>
				<g>
					
						<radialGradient id="SVGID_16_" cx="253.7498" cy="396.746" r="202.7963" gradientTransform="matrix(0.8535 -0.5211 0.6682 1.0944 22.7119 62.3621)" gradientUnits="userSpaceOnUse">
						<stop  offset="0" style="stop-color:#F382DD"/>
						<stop  offset="0.2995" style="stop-color:#DD6AD1"/>
						<stop  offset="0.9297" style="stop-color:#A42CB1"/>
						<stop  offset="1" style="stop-color:#9D25AD"/>
					</radialGradient>
					<path class="st16" d="M698.8,379.7c10.1,4.8,13.7,17.4,7.5,26.8c-13.9,21.1-53.2,60.8-163,127.8
						c-109.7,67-162.8,83.8-187.8,86.5c-11.1,1.2-20.7-7.7-20.4-18.9l11.9-389.5L698.8,379.7z"/>
					
						<radialGradient id="SVGID_17_" cx="250.1446" cy="396.7459" r="198.9255" gradientTransform="matrix(0.8535 -0.5211 0.6682 1.0944 22.7119 62.3621)" gradientUnits="userSpaceOnUse">
						<stop  offset="0" style="stop-color:#FFEAFF"/>
						<stop  offset="0.3974" style="stop-color:#FFC2FC"/>
						<stop  offset="0.7873" style="stop-color:#FFA1F9"/>
						<stop  offset="1" style="stop-color:#FF94F8"/>
					</radialGradient>
					<path class="st17" d="M496.4,518.5c-48.3,36.7-102.6,61.7-161.1,75.8l1-31.2c52.2-14.2,100.7-37.6,144.2-70.8
						c52.9-40.5,95.3-93.4,126.4-156.3l25.7,12.2C599.5,417.2,553.9,474.9,496.4,518.5z M379.3,227.8
						c-10.4,12.7-21.7,24.2-33.9,34.6l-1.2,39.4c23.4-16.8,44.4-37.2,62.4-61L379.3,227.8z M661.7,362.1
						c-35.1,75.8-84.4,139-147.1,186.2c-8,6-16.2,11.7-24.5,17.2c16.1-8.9,33.7-19.2,53.2-31.1c32.9-20.1,59.5-37.7,80.9-53.2
						c24.5-32.2,45.6-68,63.1-106.9L661.7,362.1z M346.9,212.4l0,1.4c0.3-0.3,0.6-0.7,0.9-1L346.9,212.4z M394,350.8
						c28.2-22.9,52.2-50.3,72-81.8l-26.6-12.6c-17.3,25.9-37.8,48.8-61.4,68.2c-11.3,9.3-23.1,17.7-35.3,25.1l-1.1,35.7
						C360,375.7,377.5,364.2,394,350.8z M462.3,462.7c47.7-36.9,86.3-84.4,115.3-140.6l-25.9-12.3c-27,50.3-62.2,93.1-105.3,126.7
						c-33,25.8-69.3,45.2-108,58.7l-1,32.1C382.4,513.4,424.3,492,462.3,462.7z M428.1,406.7c37.9-30,69.3-67.4,94-111l-26.2-12.5
						c-22.4,37.9-50.4,70.6-83.7,97.4c-22.3,17.9-46.3,32.6-71.7,44.1l-1,33.3C371,445.4,400.7,428.3,428.1,406.7z"/>
				</g>
				
					<radialGradient id="SVGID_18_" cx="159.7747" cy="542.4228" r="287.882" gradientTransform="matrix(0.9005 -0.4349 0.1842 0.3815 256.2861 400.1945)" gradientUnits="userSpaceOnUse">
					<stop  offset="0" style="stop-color:#F382DD"/>
					<stop  offset="0.2302" style="stop-color:#F59AE4"/>
					<stop  offset="0.7138" style="stop-color:#FBD8F4"/>
					<stop  offset="1" style="stop-color:#FFFFFF"/>
				</radialGradient>
				<path class="st18" d="M637.9,350.8c-22.7,17.8-46.2,34.4-71.3,48.6c-35.2,19.9-74.4,37.9-114.4,45.7
					c-37.6,7.3-74.9,7.3-112.5,1.6L335,601.9c-0.3,11.2,9.2,20.1,20.4,18.9c25-2.7,78.2-19.5,187.8-86.5
					c109.8-67,149.1-106.8,163-127.8c6.2-9.3,2.6-22-7.5-26.8L637.9,350.8z"/>
				
					<radialGradient id="SVGID_19_" cx="619.0394" cy="726.9023" r="111.2777" gradientTransform="matrix(1.3242 0.7917 -0.2641 0.4416 -131.1954 -467.6999)" gradientUnits="userSpaceOnUse">
					<stop  offset="0" style="stop-color:#FFFFFF"/>
					<stop  offset="1" style="stop-color:#FFFFFF;stop-opacity:0"/>
				</radialGradient>
				<path class="st19" d="M643.9,431.5c-16.2,27.1-95.4,9.7-176.7-39c-81.4-48.7-134.2-110.1-118-137.2c16.2-27.1,95.4-9.7,176.7,39
					C607.3,342.9,660.1,404.4,643.9,431.5z"/>
			</g>
			<g>
				
					<radialGradient id="SVGID_20_" cx="64.4056" cy="206.7348" r="74.6458" gradientTransform="matrix(0.5416 -0.8406 0.4937 0.3181 141.5172 221.4714)" gradientUnits="userSpaceOnUse">
					<stop  offset="0" style="stop-color:#FFEAFF"/>
					<stop  offset="0.3974" style="stop-color:#FFC2FC"/>
					<stop  offset="0.7873" style="stop-color:#FFA1F9"/>
					<stop  offset="1" style="stop-color:#FF94F8"/>
				</radialGradient>
				<path class="st20" d="M358.7,209c0,0-68.3-21.5-118.6,9.6l2.9,22.2c0,0,71.7-29.6,108-8.4L358.7,209z"/>
				
					<linearGradient id="SVGID_21_" gradientUnits="userSpaceOnUse" x1="-130.0844" y1="-235.1408" x2="-17.0001" y2="-235.1408" gradientTransform="matrix(-0.7572 -0.6532 0.6532 -0.7572 433.6849 -47.7844)">
					<stop  offset="0" style="stop-color:#557BD0"/>
					<stop  offset="0.2708" style="stop-color:#187CE3"/>
					<stop  offset="0.4008" style="stop-color:#007CEA"/>
					<stop  offset="0.5512" style="stop-color:#0B8FEE"/>
					<stop  offset="0.8539" style="stop-color:#26BFF9"/>
					<stop  offset="1" style="stop-color:#34D9FF"/>
				</linearGradient>
				<path class="st21" d="M307.7,124.3c0,0-3.8,71.5,38.8,112.5l20.7-8.4c0,0-46.5-62.1-35-102.5L307.7,124.3z"/>
				
					<linearGradient id="SVGID_22_" gradientUnits="userSpaceOnUse" x1="161.529" y1="277.4499" x2="274.6121" y2="277.4499" gradientTransform="matrix(-0.8962 0.2993 0.2877 0.8615 432.144 -43.6135)">
					<stop  offset="0" style="stop-color:#557BD0"/>
					<stop  offset="0.2708" style="stop-color:#187CE3"/>
					<stop  offset="0.4008" style="stop-color:#007CEA"/>
					<stop  offset="0.5512" style="stop-color:#0B8FEE"/>
					<stop  offset="0.8539" style="stop-color:#26BFF9"/>
					<stop  offset="1" style="stop-color:#34D9FF"/>
				</linearGradient>
				<path class="st22" d="M271.7,295.2c0,0,23-61.9,75-82.3l14.9,14.1c0,0-51.6,27.8-61.9,77.1L271.7,295.2z"/>
				
					<linearGradient id="SVGID_23_" gradientUnits="userSpaceOnUse" x1="-186.6817" y1="20.9088" x2="-79.0624" y2="20.9088" gradientTransform="matrix(-0.6603 -0.6758 -0.6496 0.6348 218.3945 100.4381)">
					<stop  offset="0" style="stop-color:#F55534"/>
					<stop  offset="0.6613" style="stop-color:#FC8E33"/>
					<stop  offset="1" style="stop-color:#FFA633"/>
				</linearGradient>
				<path class="st23" d="M245.9,178c0,0,59.9-7.9,101,30l-6.1,19.5c0,0-47.5-34.3-96.3-22.1L245.9,178z"/>
				<radialGradient id="SVGID_24_" cx="402.4924" cy="179.9887" r="63.2603" gradientUnits="userSpaceOnUse">
					<stop  offset="0" style="stop-color:#F382DD"/>
					<stop  offset="0.2995" style="stop-color:#DD6AD1"/>
					<stop  offset="0.9297" style="stop-color:#A42CB1"/>
					<stop  offset="1" style="stop-color:#9D25AD"/>
				</radialGradient>
				<path class="st24" d="M387.5,129.5c0,0-47.8,45.7-43,96.4l20.2,5.7c0,0,10.7-64,39.4-87.6L387.5,129.5z"/>
				
					<radialGradient id="SVGID_25_" cx="41.7271" cy="-497.9266" r="87.8728" gradientTransform="matrix(0.803 -0.4493 -0.5877 -0.7064 -27.8062 -74.3805)" gradientUnits="userSpaceOnUse">
					<stop  offset="0" style="stop-color:#6AC443"/>
					<stop  offset="0.2473" style="stop-color:#63B13A"/>
					<stop  offset="0.7337" style="stop-color:#56902A"/>
					<stop  offset="1" style="stop-color:#518324"/>
				</radialGradient>
				<path class="st25" d="M237.3,254.3c0,0,51.5-38.5,110.1-30.5l7.1,18.1c0,0-52.2-4-100.1,28.1L237.3,254.3z"/>
				
					<radialGradient id="SVGID_26_" cx="-100.2479" cy="-161.3812" r="87.8772" gradientTransform="matrix(-0.1612 -0.9059 -0.8601 0.3235 217.9525 143.0835)" gradientUnits="userSpaceOnUse">
					<stop  offset="0" style="stop-color:#FFED57"/>
					<stop  offset="0.4138" style="stop-color:#FFC22D"/>
					<stop  offset="0.7931" style="stop-color:#FFA10C"/>
					<stop  offset="1" style="stop-color:#FF9400"/>
				</radialGradient>
				<path class="st26" d="M348.8,238c0,0-19.4-61.3,7.3-114l19.4-0.8c0,0-21,48-6.3,103.7L348.8,238z"/>
				
					<radialGradient id="SVGID_27_" cx="293.4061" cy="190.2771" r="79.1689" gradientTransform="matrix(0.9245 -0.3811 0.2238 0.543 -20.4442 198.7695)" gradientUnits="userSpaceOnUse">
					<stop  offset="0" style="stop-color:#F382DD"/>
					<stop  offset="0.2995" style="stop-color:#DD6AD1"/>
					<stop  offset="0.9297" style="stop-color:#A42CB1"/>
					<stop  offset="1" style="stop-color:#9D25AD"/>
				</radialGradient>
				<path class="st27" d="M370.1,229.4c-2.8-6.3-31.7-63.3-94.7-85.5l-14.1,22c0,0,55.4,17.6,89.8,80.3L370.1,229.4z"/>
			</g>
		</g>
	</g>
	<g>
		<g>
			
				<radialGradient id="SVGID_28_" cx="688.6747" cy="645.761" r="97.5964" gradientTransform="matrix(1.2663 0 0 0.3359 -104.0106 688.4924)" gradientUnits="userSpaceOnUse">
				<stop  offset="0" style="stop-color:#FFB800"/>
				<stop  offset="0.1925" style="stop-color:#FFC42C"/>
				<stop  offset="0.6244" style="stop-color:#FFE39A"/>
				<stop  offset="1" style="stop-color:#FFFFFF"/>
			</radialGradient>
			<ellipse class="st28" cx="768.1" cy="905.4" rx="139.5" ry="34.5"/>
			
				<radialGradient id="SVGID_29_" cx="734.0771" cy="985.04" r="97.5983" gradientTransform="matrix(1.1352 -9.970000e-02 1.744443e-02 0.1987 -2.7771 773.7249)" gradientUnits="userSpaceOnUse">
				<stop  offset="0" style="stop-color:#FFB800"/>
				<stop  offset="0.1925" style="stop-color:#FFC42C"/>
				<stop  offset="0.6244" style="stop-color:#FFE39A"/>
				<stop  offset="1" style="stop-color:#FFFFFF"/>
			</radialGradient>
			<path class="st29" d="M972.8,885.3c1,11.3-54.2,25.3-123.3,31.4c-69.1,6.1-125.8,1.8-126.8-9.5c-1-11.3,54.2-25.3,123.3-31.4
				C915,869.8,971.8,874,972.8,885.3z"/>
		</g>
		<g>
			<g>
				<linearGradient id="SVGID_30_" gradientUnits="userSpaceOnUse" x1="699.0679" y1="874.7519" x2="777.1495" y2="874.7519">
					<stop  offset="0" style="stop-color:#1F3FA9"/>
					<stop  offset="0.2589" style="stop-color:#2661C7"/>
					<stop  offset="0.5712" style="stop-color:#2E83E5"/>
					<stop  offset="0.8296" style="stop-color:#3297F8"/>
					<stop  offset="1" style="stop-color:#349FFF"/>
				</linearGradient>
				<path class="st30" d="M712,848c-0.5,10.8-4.4,21.9-12.9,30.7c8.4,4.8,14.8,12.4,18.2,22.1c0.1,0.3,0.2,0.5,0.2,0.8h59.6V848H712
					z"/>
				<linearGradient id="SVGID_31_" gradientUnits="userSpaceOnUse" x1="699.0681" y1="874.7519" x2="777.1498" y2="874.7519">
					<stop  offset="0" style="stop-color:#1F3FA9"/>
					<stop  offset="0.3351" style="stop-color:#2856BD"/>
					<stop  offset="0.7352" style="stop-color:#316ACE"/>
					<stop  offset="1" style="stop-color:#3472D5"/>
				</linearGradient>
				<path class="st31" d="M738.2,848c-5.8,28.3-22.4,37.9-27.4,41c2.7,3.5,4.8,7.4,6.4,11.7c0.1,0.3,0.2,0.5,0.2,0.8h59.6V848H738.2
					z"/>
				
					<radialGradient id="SVGID_32_" cx="729.2902" cy="849.3403" r="45.3138" gradientTransform="matrix(0.9998 -1.950840e-02 5.257358e-03 0.2694 -4.3265 634.7208)" gradientUnits="userSpaceOnUse">
					<stop  offset="0" style="stop-color:#FFFFFF"/>
					<stop  offset="1" style="stop-color:#FFFFFF;stop-opacity:0"/>
				</radialGradient>
				<path class="st32" d="M712,848c-0.5,10.8-4.4,21.9-12.9,30.7c86.5-1.2,78.1-30.7,78.1-30.7H712z"/>
			</g>
			<g>
				<linearGradient id="SVGID_33_" gradientUnits="userSpaceOnUse" x1="839.8354" y1="898.903" x2="844.8181" y2="857.7958">
					<stop  offset="0" style="stop-color:#557BD0"/>
					<stop  offset="0.2708" style="stop-color:#187CE3"/>
					<stop  offset="0.4008" style="stop-color:#007CEA"/>
					<stop  offset="0.5512" style="stop-color:#0B8FEE"/>
					<stop  offset="0.8539" style="stop-color:#26BFF9"/>
					<stop  offset="1" style="stop-color:#34D9FF"/>
				</linearGradient>
				<polygon class="st33" points="896.4,888.9 791.3,909.4 791.3,842 896.4,862.5 				"/>
				<linearGradient id="SVGID_34_" gradientUnits="userSpaceOnUse" x1="841.3293" y1="902.9246" x2="846.6555" y2="858.9832">
					<stop  offset="0" style="stop-color:#4A0060"/>
					<stop  offset="0.1658" style="stop-color:#5D1070"/>
					<stop  offset="0.7312" style="stop-color:#9B44A5"/>
					<stop  offset="1" style="stop-color:#B358B9"/>
				</linearGradient>
				<path class="st34" d="M791.3,900.9v-26.2c5.5-9.8,11-19.6,16.3-29.5l10.4,2C809.5,865.4,800.5,883.2,791.3,900.9z M847.7,853
					l-15.3-3c-8.9,19.3-18.4,38.1-28.1,56.9L824,903C832.8,886.9,840.3,870,847.7,853z M873.5,858.1l-11.6-2.3
					c-6.4,14.8-12.8,29.5-19.9,43.7l15.2-3C862.8,883.8,868.3,871.1,873.5,858.1z M887.5,860.8c-4.3,11-8.9,21.8-13.6,32.5l22.5-4.4
					v-26.3L887.5,860.8z"/>
				
					<radialGradient id="SVGID_35_" cx="911.9134" cy="862.5621" r="105.5464" gradientTransform="matrix(0.8345 0.1017 -1.036362e-02 0.1209 93.2652 665.5699)" gradientUnits="userSpaceOnUse">
					<stop  offset="0" style="stop-color:#FFFFFF"/>
					<stop  offset="1" style="stop-color:#FFFFFF;stop-opacity:0"/>
				</radialGradient>
				<polygon class="st35" points="896.4,875.7 791.3,877 791.3,842 896.4,862.5 				"/>
			</g>
			<g>
				<linearGradient id="SVGID_36_" gradientUnits="userSpaceOnUse" x1="745.4587" y1="874.7519" x2="798.9416" y2="874.7519">
					<stop  offset="0" style="stop-color:#55B7D0"/>
					<stop  offset="0.1479" style="stop-color:#3E95E9"/>
					<stop  offset="0.2738" style="stop-color:#2F7FF9"/>
					<stop  offset="0.3547" style="stop-color:#2A77FF"/>
					<stop  offset="0.4978" style="stop-color:#2C7AFF"/>
					<stop  offset="0.6068" style="stop-color:#3384FF"/>
					<stop  offset="0.7045" style="stop-color:#3E94FF"/>
					<stop  offset="0.7956" style="stop-color:#4FABFF"/>
					<stop  offset="0.8821" style="stop-color:#64C9FF"/>
					<stop  offset="0.9641" style="stop-color:#7DEDFF"/>
					<stop  offset="1" style="stop-color:#8AFFFF"/>
				</linearGradient>
				<path class="st36" d="M795.9,917.6h-47.5c-1.7,0-3-1.3-3-3v-79.7c0-1.7,1.3-3,3-3h47.5c1.7,0,3,1.3,3,3v79.7
					C798.9,916.3,797.6,917.6,795.9,917.6z"/>
				
					<radialGradient id="SVGID_37_" cx="777.8283" cy="836.2592" r="51.1137" gradientTransform="matrix(1 0 0 0.3236 0 565.6566)" gradientUnits="userSpaceOnUse">
					<stop  offset="0" style="stop-color:#FFFFFF"/>
					<stop  offset="1" style="stop-color:#FFFFFF;stop-opacity:0"/>
				</radialGradient>
				<path class="st37" d="M749.4,864.4c16.5,0,33,0.5,49.5,0.9v-26.4c0-3.9-3.1-7-7-7h-39.5c-3.9,0-7,3.1-7,7v25.7
					C746.8,864.5,748.1,864.4,749.4,864.4z"/>
				<linearGradient id="SVGID_38_" gradientUnits="userSpaceOnUse" x1="745.4587" y1="888.4722" x2="798.9416" y2="888.4722">
					<stop  offset="0" style="stop-color:#1F3FA9"/>
					<stop  offset="0.3351" style="stop-color:#2856BD"/>
					<stop  offset="0.7352" style="stop-color:#316ACE"/>
					<stop  offset="1" style="stop-color:#3472D5"/>
				</linearGradient>
				<path class="st38" d="M782.6,889.5c-14.2-6.9-27-17.6-37.2-30.1v51.2c0,3.9,3.1,7,7,7h39.5c3.9,0,7-3.1,7-7v-14.4
					C793.5,894.3,788.1,892.1,782.6,889.5z"/>
			</g>
			<g>
				<g>
					<linearGradient id="SVGID_39_" gradientUnits="userSpaceOnUse" x1="932.8891" y1="900.0494" x2="932.8891" y2="857.3776">
						<stop  offset="0" style="stop-color:#557BD0"/>
						<stop  offset="0.2033" style="stop-color:#185FE3"/>
						<stop  offset="0.3009" style="stop-color:#0054EA"/>
						<stop  offset="0.3824" style="stop-color:#035CEB"/>
						<stop  offset="0.5121" style="stop-color:#0C73EF"/>
						<stop  offset="0.6729" style="stop-color:#1B99F5"/>
						<stop  offset="0.7488" style="stop-color:#23ADF8"/>
						<stop  offset="1" style="stop-color:#0054EA"/>
					</linearGradient>
					<rect x="896.4" y="862.5" class="st39" width="72.9" height="26.3"/>
					<radialGradient id="SVGID_40_" cx="967.1187" cy="804.9965" r="80.8596" gradientUnits="userSpaceOnUse">
						<stop  offset="0" style="stop-color:#557BD0"/>
						<stop  offset="0.1557" style="stop-color:#358EE6"/>
						<stop  offset="0.2942" style="stop-color:#1D9DF6"/>
						<stop  offset="0.4843" style="stop-color:#0868ED"/>
						<stop  offset="0.5534" style="stop-color:#0054EA"/>
						<stop  offset="0.6016" style="stop-color:#035CEB"/>
						<stop  offset="0.6782" style="stop-color:#0D73EF"/>
						<stop  offset="0.7732" style="stop-color:#1B99F5"/>
						<stop  offset="0.7827" style="stop-color:#1D9DF6"/>
						<stop  offset="0.9409" style="stop-color:#0868ED"/>
						<stop  offset="0.9985" style="stop-color:#0054EA"/>
					</radialGradient>
					<path class="st40" d="M1011.8,744.9c-26.4-17.6-56.8-18.4-81.2-2.2c-22.8,15.1-34.4,41.7-29.4,67.8
						c3.3,17.5,15.1,32.1,32.3,39.9c16.4,7.5,34.5,7.2,48.4-0.9c16-9.3,25.5-24.8,25.5-41.5c0-15.5-8.5-29.6-22.5-37.7
						c-14.3-8.2-32-4.8-42,8c-9.7,12.3-8.7,29,2.2,40.4c5,5.2,13.4,5.4,18.6,0.4c5.2-5,5.4-13.4,0.4-18.6c-0.8-0.9-2.8-2.9-0.5-5.9
						c0.6-0.7,3.5-4.1,8.2-1.4c6,3.5,9.3,8.7,9.3,14.9c0,7.2-4.6,14.2-12.4,18.7c-6.4,3.7-15.7,3.6-24.3-0.3
						c-9.3-4.2-15.6-11.9-17.3-20.9c-3-15.6,4.1-31.6,18.1-40.9c7.4-4.9,27.1-14.4,52,2.2c19,12.6,22.6,40.2,16.3,60.9
						c-3.2,10.5-13.7,34.9-43.2,34.9h-0.9v26.3h0.9c32.2,0,58.5-20.5,68.5-53.6C1049.4,799.8,1038.4,762.6,1011.8,744.9z"/>
				</g>
				<radialGradient id="SVGID_41_" cx="970.4495" cy="809.9894" r="75.6593" gradientUnits="userSpaceOnUse">
					<stop  offset="0" style="stop-color:#41B2FF"/>
					<stop  offset="2.273840e-02" style="stop-color:#46B3FF"/>
					<stop  offset="0.5055" style="stop-color:#A9CFFF"/>
					<stop  offset="0.8414" style="stop-color:#E7E0FF"/>
					<stop  offset="1" style="stop-color:#FFE7FF"/>
				</radialGradient>
				<path class="st41" d="M932,862.5c-0.6,1.6-11.6,22.4-14.1,26.3h-19.7c4.9-8.6,9.4-17.5,14-26.3H932z M977.6,798.3
					c0.9,1.2,1.7,2.5,2.2,3.9c11.3,4,20,11.4,25.8,17.8c1.1-3.9,1.7-8,1.7-12.1c0-9.2-3-17.8-8.3-25.1
					C993,785.4,984.1,790.3,977.6,798.3z M984.8,770.3c1.5,0.8,2.9,1.8,4.2,2.7c-7.6,3.9-17,10.3-23.7,20c-0.5,0.3-0.9,0.6-1.2,0.9
					c-9.6-4.2-16.7-11.5-20.6-16.4C953.7,765.3,970.8,762.3,984.8,770.3z M903.4,818.6c-0.9-2.6-1.7-5.3-2.3-8.1
					c-1.8-9.3-1.4-18.6,0.8-27.5c6.3,6.5,14.8,12.1,24.5,15.3c0,2.4,0.2,4.8,0.6,7.3c0.6,3.4,1.9,6.6,3.8,9.5
					C921.3,819.3,910.9,819.9,903.4,818.6z M1042.7,809.1c-0.1,8.6-1.4,17.5-4.1,26.2c-0.3,1-0.7,1.9-1,2.9
					c-4.8-8.6-12.3-16.9-21.8-22.4c0.7-6.7,0.5-13.6-0.8-20.2C1027.3,797,1037.9,803.6,1042.7,809.1z M958.2,855.7
					c5.7-7.3,12.2-18.1,13.6-31.2c3.2-2.4,5.6-5.3,7.2-8.4c9.7,4.4,16.7,12.2,20.5,17.1c-4.3,6.4-10.3,12-17.6,16.3
					C974.8,853.6,966.6,855.7,958.2,855.7z M995.4,884.3c-7.6,2.9-15.9,4.5-24.7,4.6c4.3-7.4,8.5-16.8,11-27.7
					c5.4-1.4,9.9-3.6,13.7-6.4C997.8,865,996.7,876.1,995.4,884.3z M945,818.7c-7.8-8.1-10.5-18.8-8-28.7c6.6,7,17.3,15.3,30.6,18.6
					c0.3,3.8-1,7.6-4,10.5C958.3,824.1,950,824,945,818.7z M1030.3,764c5.1,8,8.8,17.1,10.7,26.8c-8.5-5.2-19.4-8.7-30.5-8.7
					c-2.2-4.3-5.1-8.3-8.7-11.6C1011.4,764.7,1022.6,763.2,1030.3,764z M933.4,850.4c-9.2-4.2-16.9-10.4-22.5-17.9
					c9.8,0,20.6-2.5,29.9-7.9c1.1,0.7,2.3,1.3,3.5,1.9c4.3,2,8.9,3,13.1,3c-3.2,11.5-11.1,20.4-15,24.3
					C939.4,852.8,936.4,851.7,933.4,850.4z M1030.2,854.6c-5.4,9.1-12.4,16.6-20.6,22.2c0.9-10,0.6-21.9-3.8-32.9
					c3.5-5.1,5.7-10.4,7.1-14.3C1022.5,836.6,1028.4,847.2,1030.2,854.6z M955.2,888.9H932c1.1-1.8,11-17.4,14.4-26.3h21.3
					C964.6,873.6,959.6,882.5,955.2,888.9z M993.9,735.8c6.1,2.2,12.1,5.3,17.9,9.1c2.7,1.8,5.2,3.9,7.6,6.1
					c-9.9,1.2-20.5,5-29.3,11.8c-6.2-3.1-12-4.6-17.3-5.1C977.8,746.7,987,738.8,993.9,735.8z M907.2,768.7
					c4.8-9.4,12-17.8,21.1-24.4c-0.2,9.6,1.8,20.2,6.8,29.5c-2.7,3.4-4.9,7.3-6.4,11.3C919.1,781.5,911.5,774.7,907.2,768.7z
					 M942.6,736.3c10.8-4.5,22.2-6.1,33.8-4.8c-7.8,6.7-14.7,16.2-18.1,27.3c-5.8,1.5-10.2,3.9-13,5.7
					C941,754.7,940.9,743.9,942.6,736.3z"/>
			</g>
		</g>
	</g>
</g>
<g>
	
		<linearGradient id="SVGID_42_" gradientUnits="userSpaceOnUse" x1="608.879" y1="560.6495" x2="684.475" y2="560.6495" gradientTransform="matrix(0.8396 -0.5433 0.5433 0.8396 56.9885 301.2903)">
		<stop  offset="0" style="stop-color:#F55534"/>
		<stop  offset="0.6613" style="stop-color:#FC8E33"/>
		<stop  offset="1" style="stop-color:#FFA633"/>
	</linearGradient>
	<path class="st42" d="M857.5,417.6l25.5-30.7c0,0,32.4,33.1,65.5,32.1l-24.9,37C923.6,456,880.1,446.1,857.5,417.6z"/>
	
		<radialGradient id="SVGID_43_" cx="1202.6282" cy="55.1728" r="88.1348" gradientTransform="matrix(0.8868 0.4622 -0.4622 0.8868 12.0602 -278.9435)" gradientUnits="userSpaceOnUse">
		<stop  offset="0" style="stop-color:#F382DD"/>
		<stop  offset="0.2995" style="stop-color:#DD6AD1"/>
		<stop  offset="0.9297" style="stop-color:#A42CB1"/>
		<stop  offset="1" style="stop-color:#9D25AD"/>
	</radialGradient>
	<path class="st43" d="M987.4,307.1l39.3,7.1c0,0-12.8,44.5,4.4,72.8l-44.4-3.4C986.6,383.5,973.8,340.8,987.4,307.1z"/>
	
		<radialGradient id="SVGID_44_" cx="-460.9105" cy="63.3295" r="88.1403" gradientTransform="matrix(-4.810000e-02 -0.9988 0.9988 -4.810000e-02 349.5011 481.6489)" gradientUnits="userSpaceOnUse">
		<stop  offset="0" style="stop-color:#F382DD"/>
		<stop  offset="0.2995" style="stop-color:#DD6AD1"/>
		<stop  offset="0.9297" style="stop-color:#A42CB1"/>
		<stop  offset="1" style="stop-color:#9D25AD"/>
	</radialGradient>
	<path class="st44" d="M451.9,1005.1l-13.7-37.5c0,0,44.9-11.4,60.6-40.5l19.5,40.1C518.3,967.2,487.8,999.9,451.9,1005.1z"/>
	
		<radialGradient id="SVGID_45_" cx="-155.1753" cy="242.6286" r="88.1353" gradientTransform="matrix(0.5892 -0.808 0.808 0.5892 204.543 465.6458)" gradientUnits="userSpaceOnUse">
		<stop  offset="0" style="stop-color:#6AC443"/>
		<stop  offset="0.2473" style="stop-color:#63B13A"/>
		<stop  offset="0.7337" style="stop-color:#56902A"/>
		<stop  offset="1" style="stop-color:#518324"/>
	</radialGradient>
	<path class="st45" d="M280.8,796.1l12.8-37.8c0,0,42.1,19.3,72.6,6.5l-10,43.4C356.3,808.3,312.1,814.6,280.8,796.1z"/>
	<radialGradient id="SVGID_46_" cx="221.5774" cy="546.9422" r="106.8714" gradientUnits="userSpaceOnUse">
		<stop  offset="0" style="stop-color:#FFED57"/>
		<stop  offset="0.4138" style="stop-color:#FFC22D"/>
		<stop  offset="0.7931" style="stop-color:#FFA10C"/>
		<stop  offset="1" style="stop-color:#FF9400"/>
	</radialGradient>
	<path class="st46" d="M235.4,663.2l-21.3-33.7c0,0,41.5-20.6,50.7-52.4l27.5,35C292.3,612.1,269.4,650.5,235.4,663.2z"/>
	<radialGradient id="SVGID_47_" cx="1064.1188" cy="560.2532" r="89.5842" gradientUnits="userSpaceOnUse">
		<stop  offset="0" style="stop-color:#FFEAFF"/>
		<stop  offset="0.3974" style="stop-color:#FFC2FC"/>
		<stop  offset="0.7873" style="stop-color:#FFA1F9"/>
		<stop  offset="1" style="stop-color:#FF94F8"/>
	</radialGradient>
	<path class="st47" d="M1065.9,611.1l-33.9,21.1c0,0-20.4-41.6-52.1-51l35.2-27.3C1015.2,553.9,1053.4,576.9,1065.9,611.1z"/>
	<radialGradient id="SVGID_48_" cx="308.6462" cy="879.9759" r="89.5842" gradientUnits="userSpaceOnUse">
		<stop  offset="0" style="stop-color:#FFEAFF"/>
		<stop  offset="0.3974" style="stop-color:#FFC2FC"/>
		<stop  offset="0.7873" style="stop-color:#FFA1F9"/>
		<stop  offset="1" style="stop-color:#FF94F8"/>
	</radialGradient>
	<path class="st48" d="M310.5,930.8l-33.9,21.1c0,0-20.4-41.6-52.1-51l35.2-27.3C259.8,873.6,298,896.7,310.5,930.8z"/>
	<linearGradient id="SVGID_49_" gradientUnits="userSpaceOnUse" x1="782.6931" y1="251.9227" x2="860.9034" y2="251.9227">
		<stop  offset="0" style="stop-color:#557BD0"/>
		<stop  offset="0.2708" style="stop-color:#187CE3"/>
		<stop  offset="0.4008" style="stop-color:#007CEA"/>
		<stop  offset="0.5512" style="stop-color:#0B8FEE"/>
		<stop  offset="0.8539" style="stop-color:#26BFF9"/>
		<stop  offset="1" style="stop-color:#34D9FF"/>
	</linearGradient>
	<path class="st49" d="M804,295l-21.3-33.7c0,0,41.5-20.6,50.7-52.4l27.5,35C860.9,243.9,838,282.3,804,295z"/>
</g>
<g>
	<radialGradient id="SVGID_50_" cx="700.8918" cy="284.1573" r="96.6006" gradientUnits="userSpaceOnUse">
		<stop  offset="0" style="stop-color:#FF9400"/>
		<stop  offset="0.2069" style="stop-color:#FFA10C"/>
		<stop  offset="0.5862" style="stop-color:#FFC22D"/>
		<stop  offset="1" style="stop-color:#FFED57"/>
	</radialGradient>
	<circle class="st50" cx="737.7" cy="216.3" r="39.4"/>
	<radialGradient id="SVGID_51_" cx="978.2982" cy="1065.5919" r="96.6006" gradientUnits="userSpaceOnUse">
		<stop  offset="0" style="stop-color:#FF9400"/>
		<stop  offset="0.2069" style="stop-color:#FFA10C"/>
		<stop  offset="0.5862" style="stop-color:#FFC22D"/>
		<stop  offset="1" style="stop-color:#FFED57"/>
	</radialGradient>
	<circle class="st51" cx="1015.1" cy="997.7" r="39.4"/>
	<radialGradient id="SVGID_52_" cx="182.8796" cy="843.2551" r="96.6006" gradientUnits="userSpaceOnUse">
		<stop  offset="0" style="stop-color:#FF9400"/>
		<stop  offset="0.2069" style="stop-color:#FFA10C"/>
		<stop  offset="0.5862" style="stop-color:#FFC22D"/>
		<stop  offset="1" style="stop-color:#FFED57"/>
	</radialGradient>
	<circle class="st52" cx="219.7" cy="775.4" r="39.4"/>
	<radialGradient id="SVGID_53_" cx="1023.5228" cy="574.6975" r="96.6003" gradientUnits="userSpaceOnUse">
		<stop  offset="0" style="stop-color:#FF9400"/>
		<stop  offset="0.2069" style="stop-color:#FFA10C"/>
		<stop  offset="0.5862" style="stop-color:#FFC22D"/>
		<stop  offset="1" style="stop-color:#FFED57"/>
	</radialGradient>
	<circle class="st53" cx="1060.3" cy="506.8" r="39.4"/>
</g>
</svg>
